<?xml version="1.0" standalone="no"?>
<!DOCTYPE svg PUBLIC "-//W3C//DTD SVG 20010904//EN"
 "http://www.w3.org/TR/2001/REC-SVG-20010904/DTD/svg10.dtd">
<svg version="1.0" xmlns="http://www.w3.org/2000/svg"
 width="256.000000pt" height="256.000000pt" viewBox="0 0 256.000000 256.000000"
 preserveAspectRatio="xMidYMid meet">

<g transform="translate(0.000000,256.000000) scale(0.100000,-0.100000)"
fill="#000000" stroke="none">
<path d="M0 1280 l0 -1280 1280 0 1280 0 0 1280 0 1280 -1280 0 -1280 0 0
-1280z m1421 592 c174 -294 299 -510 376 -647 53 -93 102 -179 109 -190 13
-20 10 -20 -239 -23 l-253 -4 -23 59 c-12 32 -29 74 -36 93 -37 94 -85 223
-85 229 0 3 6 -1 13 -9 7 -8 23 -15 37 -15 31 0 36 14 54 154 l15 104 -70 139
-69 138 77 0 c74 0 79 -1 94 -28z m245 12 l90 -6 50 -65 c27 -36 56 -75 64
-86 8 -12 44 -61 80 -109 98 -132 125 -170 242 -338 58 -85 120 -174 137 -197
l30 -41 -57 -6 c-31 -3 -129 -7 -217 -8 l-160 -3 -163 285 c-89 157 -201 349
-247 428 -47 78 -85 146 -85 151 0 8 34 7 236 -5z m-1238 -164 c24 -6 51 -10
60 -8 18 3 54 -28 65 -55 5 -12 1 -17 -13 -17 -18 0 -18 -10 -17 -202 l2 -203
135 -5 134 -5 21 -107 21 -108 -258 0 -258 0 0 336 c0 299 2 339 17 365 10 17
23 27 33 25 8 -3 34 -10 58 -16z m541 -120 c23 -74 46 -144 52 -156 7 -14 7
-48 1 -110 -6 -49 -8 -92 -5 -97 3 -4 68 -7 146 -6 l141 1 43 -108 c24 -60 43
-110 43 -111 0 -2 -119 -3 -264 -3 l-263 0 -22 100 c-25 120 -26 131 -6 124
10 -4 15 0 15 14 0 12 7 99 16 194 22 236 22 231 13 249 -4 8 -4 21 1 29 8 12
10 12 15 -2 4 -9 13 -19 21 -22 11 -4 13 1 8 22 -17 68 8 5 45 -118z m62 -50
l2 45 4 -39 c3 -22 1 -51 -2 -65 -6 -22 -11 -13 -31 54 -30 102 -29 121 1 30
l24 -70 2 45z"/>
</g>
</svg>
